<svg id="Group_1811" data-name="Group 1811" xmlns="http://www.w3.org/2000/svg" width="18.233" height="22.949" viewBox="0 0 18.233 22.949">
  <path id="Path_3445" data-name="Path 3445" d="M66.8,7.163c-4.1-2.492-2.175-6.01-2.093-6.156A.672.672,0,0,0,64.126,0a6.556,6.556,0,0,0-4.908,1.781c-1.961,2.019-1.87,5.161-1.832,6.5,0,.149.008.277.008.372a15.639,15.639,0,0,0,.3,2.728,11.168,11.168,0,0,1,.183,1.33c.015.38-.054.467-.057.471a.552.552,0,0,1-.315.056.754.754,0,0,1-.608-.269c-.649-.728-.694-2.714-.57-3.795a.672.672,0,0,0-.668-.75c-1.746,0-3.05,2.855-3.05,5.407a8.874,8.874,0,0,0,.717,3.493,9.272,9.272,0,0,0,1.95,2.9,9.1,9.1,0,0,0,15.565-6.393C70.844,10.743,68.427,8.152,66.8,7.163ZM61.727,21.6a7.876,7.876,0,0,1-7.771-7.772,6.8,6.8,0,0,1,.671-2.95,4.055,4.055,0,0,1,.3-.513,5.616,5.616,0,0,0,.965,3.495,2.1,2.1,0,0,0,1.613.72,1.665,1.665,0,0,0,1.344-.535c.558-.663.387-1.649.17-2.9a14.574,14.574,0,0,1-.281-2.5c0-.115,0-.252-.009-.411-.037-1.271-.113-3.916,1.452-5.527A4.736,4.736,0,0,1,63.108,1.4a6.14,6.14,0,0,0-.266,1.717c-.01,1.457.547,3.54,3.261,5.191,1.313.8,3.4,3,3.4,5.521A7.781,7.781,0,0,1,61.727,21.6Z" transform="translate(-52.611 0)" fill="#ff3b52"/>
</svg>
