<svg xmlns="http://www.w3.org/2000/svg" width="22.901" height="26.166" viewBox="0 0 22.901 26.166">
  <path id="snowflake" d="M36.169,18.405l-2.658-1.534,2.3-1.358a.893.893,0,0,0-.907-1.538l-3.173,1.871-4.784-2.762,4.783-2.761,3.174,1.87a.893.893,0,0,0,.907-1.539L33.511,9.3l2.658-1.535a.893.893,0,0,0-.893-1.547L32.618,7.749l-.024-2.674a.893.893,0,1,0-1.786.016l.033,3.684-4.783,2.762V6.014L29.265,4.2a.893.893,0,1,0-.879-1.555L26.058,3.962V.893a.893.893,0,1,0-1.786,0V3.962L21.944,2.646A.893.893,0,0,0,21.065,4.2l3.207,1.813v5.523L19.489,8.775l.033-3.684a.893.893,0,0,0-.885-.9h-.008a.893.893,0,0,0-.893.885l-.024,2.674L15.055,6.215a.893.893,0,1,0-.893,1.547L16.82,9.3l-2.3,1.358a.893.893,0,1,0,.907,1.539l3.174-1.87,4.783,2.761L18.6,15.845l-3.173-1.871a.893.893,0,1,0-.907,1.538l2.3,1.358L14.162,18.4a.893.893,0,1,0,.893,1.547l2.658-1.535.024,2.674a.893.893,0,0,0,.893.885h.008a.893.893,0,0,0,.885-.9l-.033-3.684,4.783-2.762v5.523l-3.207,1.813a.893.893,0,1,0,.879,1.555L24.272,22.2v3.069a.893.893,0,1,0,1.786,0V22.2l2.328,1.316a.893.893,0,1,0,.879-1.555l-3.207-1.813V14.63l4.783,2.762-.034,3.684a.893.893,0,0,0,.885.9H31.7a.893.893,0,0,0,.893-.885l.025-2.675,2.658,1.535a.893.893,0,1,0,.893-1.547Z" transform="translate(-13.715)" fill="#3cd8e5"/>
</svg>
